<?xml version="1.0" encoding="utf-8"?>
<!-- Generator: Adobe Illustrator 16.0.0, SVG Export Plug-In . SVG Version: 6.00 Build 0)  -->
<!DOCTYPE svg PUBLIC "-//W3C//DTD SVG 1.1//EN" "http://www.w3.org/Graphics/SVG/1.1/DTD/svg11.dtd">
<svg version="1.1" xmlns="http://www.w3.org/2000/svg" xmlns:xlink="http://www.w3.org/1999/xlink" x="0px" y="0px"
	 width="117.82px" height="89.625px" viewBox="0 0 117.82 89.625" enable-background="new 0 0 117.82 89.625" xml:space="preserve">
<g id="Calque_1">
</g>
<g id="Calque_2">
	<g>
		<g>
			<g>
				<path d="M49.306,54.809c-1.036,0-1.876-0.839-1.876-1.877v-0.576c0-1.039,0.84-1.877,1.876-1.877
					c1.037,0,1.877,0.838,1.877,1.877v0.576C51.183,53.97,50.343,54.809,49.306,54.809z"/>
			</g>
			<g>
				<path d="M54.399,52.603c-1.036,0-1.877-0.84-1.877-1.877V50c0-1.037,0.841-1.878,1.877-1.878s1.876,0.841,1.876,1.878v0.726
					C56.275,51.763,55.436,52.603,54.399,52.603z"/>
			</g>
			<g>
				<path d="M49.306,47.861c-1.036,0-1.876-0.84-1.876-1.877v-0.902c0-1.037,0.84-1.877,1.876-1.877c1.037,0,1.877,0.84,1.877,1.877
					v0.902C51.183,47.021,50.343,47.861,49.306,47.861z"/>
			</g>
			<g>
				<path d="M86.584,52.411c-1.037,0-1.877-0.839-1.877-1.877V50c0-1.037,0.84-1.878,1.877-1.878c1.036,0,1.876,0.841,1.876,1.878
					v0.534C88.46,51.572,87.62,52.411,86.584,52.411z"/>
			</g>
			<g>
				<path d="M91.74,48.399c-1.036,0-1.877-0.839-1.877-1.877v-0.538c0-1.038,0.841-1.877,1.877-1.877
					c1.037,0,1.877,0.839,1.877,1.877v0.538C93.617,47.561,92.777,48.399,91.74,48.399z"/>
			</g>
			<g>
				<path d="M90.963,56.765c-1.037,0-1.877-0.839-1.877-1.877v-0.585c0-1.037,0.84-1.877,1.877-1.877s1.877,0.84,1.877,1.877v0.585
					C92.84,55.926,92,56.765,90.963,56.765z"/>
			</g>
			<g>
				<path d="M36.79,63.195c-3.354,0-5.982-3.905-5.982-8.893c0-4.986,2.628-8.893,5.982-8.893c1.48,0,2.895,0.788,3.979,2.218
					c0.314,0.415,0.233,1.002-0.18,1.316c-0.413,0.311-1.001,0.231-1.315-0.18c-0.511-0.675-1.356-1.478-2.484-1.478
					c-2.226,0-4.105,3.212-4.105,7.016s1.88,7.016,4.105,7.016c0.948,0,1.885-0.598,2.635-1.682c0.294-0.427,0.88-0.537,1.306-0.239
					c0.426,0.296,0.532,0.88,0.237,1.306C39.856,62.311,38.374,63.195,36.79,63.195z"/>
			</g>
			<g>
				<path d="M106.369,63.926c-1.621,0-3.164-0.881-4.343-2.479c-0.308-0.418-0.22-1.005,0.197-1.312
					c0.419-0.307,1.007-0.221,1.313,0.196c0.815,1.107,1.822,1.717,2.833,1.717c2.478,0,4.569-3.547,4.569-7.746
					c0-4.198-2.092-7.745-4.569-7.745c-1.08,0-2.139,0.686-2.984,1.93c-0.295,0.432-0.88,0.536-1.305,0.25
					c-0.43-0.292-0.539-0.876-0.25-1.305c1.207-1.774,2.819-2.752,4.539-2.752c3.614,0,6.447,4.227,6.447,9.622
					S109.983,63.926,106.369,63.926z"/>
			</g>
			<path d="M105.604,36.277c-1.048,0-2.069,0.211-3.054,0.58c0.291-1.643,0.455-3.277,0.455-4.894C103.005,14.339,87.114,0,67.582,0
				c-19.268,0-34.99,13.951-35.416,31.245c-9.102,2.416-22.254,3.108-22.343,3.113C4.407,34.358,0,38.853,0,44.377
				c0,5.522,4.403,10.016,9.758,10.016c0.001,0,0.003,0,0.004,0c0,0,0.292,0.021,0.826,0.021c2.007,0,8.422-0.312,15.12-3.844
				c-0.176,1.25-0.274,2.549-0.274,3.889c0,10.196,5.366,18.183,12.218,18.183c1.51,0,2.972-0.411,4.338-1.168
				c4.103,10.807,15.385,18.152,28.403,18.152c13.543,0,25.289-8.202,28.874-19.58c1.888,1.684,4.069,2.596,6.337,2.596
				c6.851,0,12.217-7.986,12.217-18.183C117.82,44.263,112.454,36.277,105.604,36.277z M58.976,22.166c0-4.873,3.966-8.84,8.84-8.84
				s8.84,3.967,8.84,8.84c0,0.198-0.011,0.395-0.029,0.59c-6.045-0.656-11.967-0.56-17.61,0.184
				C58.989,22.674,58.976,22.417,58.976,22.166z M105.604,68.887c-1.859,0-3.717-1.127-5.227-3.175
				c-0.131-0.178-0.297-0.309-0.47-0.425c-0.269-0.503-0.735-0.891-1.341-0.982c-1.045-0.16-1.983,0.547-2.139,1.571
				c-1.741,11.398-12.935,19.997-26.035,19.997c-11.934,0-22.169-6.925-25.303-16.946c0.377-0.428,0.742-0.876,1.086-1.372
				c0.59-0.855,0.376-2.022-0.477-2.612c-0.853-0.593-2.021-0.378-2.611,0.475c-1.547,2.237-3.478,3.47-5.437,3.47
				c-4.589,0-8.464-6.607-8.464-14.429c0-7.819,3.875-14.427,8.464-14.427c2.329,0,4.075,1.655,5.131,3.045
				c0.626,0.826,1.804,0.985,2.628,0.36c0.826-0.628,0.987-1.806,0.36-2.631c-1.203-1.583-2.604-2.767-4.114-3.53
				c7.621-3.314,16.571-5.104,25.926-5.104c11.449,0,22.27,2.698,30.809,7.578c-0.492,0.531-0.966,1.104-1.405,1.748
				c-0.581,0.858-0.356,2.026,0.501,2.608c0.858,0.581,2.027,0.358,2.608-0.5c1.562-2.307,3.519-3.574,5.509-3.574
				c4.588,0,8.464,6.607,8.464,14.427C114.067,62.279,110.191,68.887,105.604,68.887z"/>
			<path d="M84.832,37.217h-7.507c-0.519,0-0.938,0.419-0.938,0.938v4.396c0,2.588,2.104,4.692,4.69,4.692
				c2.588,0,4.693-2.104,4.693-4.692v-4.396C85.771,37.636,85.352,37.217,84.832,37.217z"/>
			<path d="M63.061,37.217h-7.508c-0.518,0-0.938,0.419-0.938,0.938v4.396c0,2.588,2.104,4.692,4.691,4.692s4.691-2.104,4.691-4.692
				v-4.396C63.998,37.636,63.578,37.217,63.061,37.217z"/>
		</g>
		<path d="M83.796,67.159c-0.007-0.198-0.045-0.391-0.114-0.572c-0.011-0.024-0.021-0.047-0.03-0.07
			c-0.084-0.188-0.197-0.357-0.339-0.505c-0.01-0.01-0.013-0.022-0.021-0.031c-0.01-0.009-0.021-0.012-0.031-0.021
			c-0.144-0.138-0.313-0.249-0.503-0.331c-0.029-0.013-0.056-0.023-0.087-0.035c-0.037-0.014-0.07-0.032-0.109-0.044l-24.385-7.144
			c-0.914-0.265-1.877,0.256-2.146,1.173c-0.07,0.239-0.083,0.479-0.053,0.712c-0.007,0.059-0.019,0.115-0.019,0.176
			c0,6.959,6.903,12.622,15.389,12.622c4.667,0,9.025-1.699,11.957-4.663c0.026-0.027,0.035-0.064,0.061-0.092
			c0.093-0.107,0.168-0.227,0.234-0.357c0.033-0.066,0.07-0.13,0.096-0.199c0.01-0.029,0.03-0.051,0.039-0.081
			c0.045-0.153,0.06-0.307,0.063-0.458C83.797,67.211,83.796,67.187,83.796,67.159z M59.711,62.459l18.57,5.441
			c-1.998,1.109-4.396,1.729-6.934,1.729C65.661,69.63,60.899,66.556,59.711,62.459z"/>
	</g>
</g>
</svg>
