<?xml version="1.0" encoding="utf-8"?>
<!-- Generator: Adobe Illustrator 16.0.0, SVG Export Plug-In . SVG Version: 6.00 Build 0)  -->
<!DOCTYPE svg PUBLIC "-//W3C//DTD SVG 1.1//EN" "http://www.w3.org/Graphics/SVG/1.1/DTD/svg11.dtd">
<svg version="1.1" xmlns="http://www.w3.org/2000/svg" xmlns:xlink="http://www.w3.org/1999/xlink" x="0px" y="0px"
	 width="261.267px" height="54.915px" viewBox="0 0 261.267 54.915" enable-background="new 0 0 261.267 54.915"
	 xml:space="preserve">
<g id="Calque_1">
</g>
<g id="Calque_2">
	<g>
		<g>
			<path d="M102.409,25.161c-1.042-2.062-2.674-3.756-4.85-5.039c-2.16-1.272-4.813-1.918-7.886-1.918
				c-3.788,0-7.559,0.784-11.206,2.328c-1.579,0.669-2.449,1.956-2.449,3.621c0,1.022,0.376,1.938,1.084,2.646
				c0.708,0.709,1.602,1.084,2.585,1.084c0.323,0,0.696-0.054,1.139-0.165l0.101-0.029c1.423-0.473,2.727-0.832,3.876-1.065
				c1.116-0.228,2.423-0.342,3.886-0.342c2.471,0,4.264,0.482,5.332,1.434c0.882,0.79,1.389,2.108,1.512,3.927h-6.043
				c-4.93,0-8.767,1.007-11.407,2.991c-2.76,2.077-4.159,4.898-4.159,8.384c0,2.11,0.529,4.011,1.572,5.647
				c1.041,1.633,2.468,2.892,4.238,3.741c1.723,0.828,3.616,1.246,5.626,1.246c3.993,0,7.475-1.072,10.388-3.195
				c0.196,0.63,0.538,1.198,1.021,1.679c0.79,0.792,1.812,1.208,2.954,1.208c1.131,0,2.156-0.41,2.966-1.188
				c0.823-0.792,1.258-1.819,1.258-2.973V31.736C103.946,29.389,103.43,27.177,102.409,25.161z M87.454,45.945
				c-1.951,0-3.367-0.347-4.097-1.002c-0.717-0.642-1.05-1.45-1.05-2.542c0-2.311,2.665-3.481,7.922-3.481h5.331v3.251
				c-0.972,1.019-2.149,1.895-3.511,2.607C90.574,45.553,89.028,45.945,87.454,45.945z"/>
			<path d="M140.09,24.973c-0.994-2.078-2.449-3.741-4.324-4.945c-1.885-1.21-4.117-1.823-6.639-1.823
				c-2.696,0-5.083,0.58-7.096,1.723c-1.048,0.595-2.063,1.304-3.035,2.121c-0.139-0.869-0.542-1.653-1.186-2.297
				c-0.811-0.811-1.844-1.239-2.985-1.239c-1.151,0-2.18,0.436-2.973,1.258c-0.777,0.81-1.188,1.834-1.188,2.967v26.446
				c0,1.143,0.417,2.165,1.207,2.953c0.79,0.792,1.813,1.208,2.954,1.208c1.133,0,2.158-0.41,2.966-1.188
				c0.823-0.791,1.258-1.82,1.258-2.974V31.181c1.253-1.512,2.587-2.738,3.969-3.647c1.404-0.926,2.96-1.375,4.754-1.375
				c3.729,0,5.393,1.892,5.393,6.133v16.892c0,1.144,0.419,2.165,1.208,2.953c0.789,0.791,1.812,1.208,2.954,1.208
				c1.132,0,2.157-0.41,2.966-1.188c0.823-0.792,1.259-1.819,1.259-2.973V31.675C141.551,29.259,141.06,27.005,140.09,24.973z"/>
			<path d="M174.166,25.161c-1.043-2.061-2.673-3.755-4.85-5.039c-2.162-1.272-4.814-1.918-7.887-1.918
				c-3.787,0-7.559,0.784-11.206,2.328c-1.579,0.669-2.449,1.956-2.449,3.621c0,1.022,0.375,1.938,1.083,2.646
				c0.708,0.71,1.603,1.085,2.587,1.085c0.322,0,0.695-0.054,1.139-0.165l0.101-0.029c1.421-0.473,2.726-0.832,3.877-1.065
				c1.114-0.228,2.421-0.342,3.883-0.342c2.471,0,4.266,0.482,5.333,1.434c0.883,0.79,1.391,2.108,1.512,3.927h-6.043
				c-4.93,0-8.767,1.007-11.407,2.991c-2.761,2.077-4.16,4.898-4.16,8.384c0,2.11,0.53,4.011,1.574,5.647
				c1.04,1.633,2.467,2.892,4.238,3.741c1.723,0.828,3.615,1.246,5.624,1.246c3.994,0,7.477-1.072,10.389-3.195
				c0.195,0.63,0.539,1.198,1.021,1.679c0.789,0.791,1.812,1.208,2.956,1.208c1.13,0,2.156-0.41,2.965-1.188
				c0.822-0.791,1.258-1.82,1.258-2.974V31.736C175.702,29.39,175.185,27.177,174.166,25.161z M159.211,45.945
				c-1.951,0-3.368-0.347-4.098-1.002c-0.716-0.642-1.05-1.45-1.05-2.542c0-2.311,2.666-3.481,7.922-3.481h5.331v3.251
				c-0.972,1.02-2.15,1.895-3.511,2.608C162.33,45.553,160.785,45.945,159.211,45.945z"/>
			<g>
				<path d="M186.828,18.512c-1.153,0-2.181,0.435-2.973,1.258c-0.777,0.807-1.189,1.834-1.189,2.967v26.446
					c0,1.144,0.419,2.166,1.208,2.953c0.79,0.792,1.813,1.208,2.954,1.208c1.131,0,2.157-0.41,2.965-1.188
					c0.823-0.791,1.259-1.82,1.259-2.974V22.736c0-1.182-0.418-2.224-1.209-3.018C189.051,18.93,188.009,18.512,186.828,18.512z"/>
				<path d="M190.276,7.207c-0.871-0.871-1.978-1.332-3.201-1.332h-0.371c-1.223,0-2.329,0.461-3.201,1.332
					c-0.87,0.87-1.33,1.977-1.33,3.2v0.246c0,1.222,0.46,2.329,1.33,3.2c0.872,0.871,1.979,1.331,3.201,1.331h0.371
					c1.224,0,2.33-0.46,3.199-1.331c0.872-0.87,1.332-1.979,1.332-3.2v-0.246C191.606,9.184,191.146,8.077,190.276,7.207z"/>
			</g>
			<path d="M205.933,6.158c-0.791-0.791-1.833-1.209-3.016-1.209c-1.154,0-2.182,0.436-2.973,1.258
				c-0.777,0.808-1.188,1.833-1.188,2.967v40.009c0,1.144,0.417,2.166,1.207,2.953c0.789,0.791,1.812,1.208,2.954,1.208
				c1.132,0,2.157-0.41,2.965-1.188c0.824-0.791,1.259-1.82,1.259-2.974V9.174C207.141,7.992,206.724,6.948,205.933,6.158z"/>
			<path d="M222.269,6.158c-0.79-0.791-1.833-1.209-3.015-1.209c-1.154,0-2.183,0.436-2.973,1.258
				c-0.778,0.808-1.189,1.833-1.189,2.967v40.009c0,1.144,0.418,2.166,1.207,2.953c0.79,0.791,1.812,1.208,2.955,1.208
				c1.132,0,2.157-0.41,2.966-1.188c0.823-0.791,1.259-1.82,1.259-2.974V9.174C223.479,7.992,223.061,6.948,222.269,6.158z"/>
			<path d="M256.364,43.479c-0.623,0-1.204,0.132-1.729,0.393c-1.141,0.571-2.321,1.014-3.513,1.315
				c-1.176,0.299-2.584,0.45-4.19,0.45c-2.881,0-5.122-0.691-6.661-2.055c-1.225-1.085-2.042-2.498-2.477-4.293h19.249
				c1.233,0,2.293-0.425,3.065-1.227c0.758-0.788,1.158-1.803,1.158-2.936c0-2.991-0.627-5.8-1.867-8.346
				c-1.259-2.585-3.128-4.682-5.554-6.231c-2.437-1.557-5.343-2.346-8.639-2.346c-3.517,0-6.54,0.849-8.984,2.524
				c-2.429,1.663-4.251,3.875-5.42,6.571c-1.14,2.629-1.717,5.532-1.717,8.628c0,5.533,1.555,9.915,4.622,13.026
				c3.071,3.119,7.354,4.698,12.732,4.698c2.584,0,4.745-0.246,6.428-0.732c1.658-0.48,3.355-1.207,5.053-2.165
				c1.898-1.096,2.298-2.499,2.298-3.483c0-1.085-0.411-2.034-1.189-2.749C258.285,43.84,257.364,43.479,256.364,43.479z
				 M237.71,31.951c0.215-1.119,0.593-2.09,1.131-2.897c0.768-1.151,1.692-1.97,2.825-2.503c2.328-1.092,4.754-1.093,7.08-0.001
				c1.14,0.536,2.077,1.359,2.865,2.517c0.549,0.804,0.934,1.771,1.151,2.885H237.71z"/>
		</g>
		<g>
			<g>
				<path d="M17.291,35.059c7.947-2.062,16.118-4.836,18.274-5.58c0.355-0.123,0.552-0.191,0.552-0.191s-0.021-0.008-0.033-0.013
					l1.615-0.636l0.022,0.009l30.894-12.3c-0.765-3.868-2.33-7.001-4.701-9.4c-2.37-2.396-5.272-4.155-8.706-5.272
					C51.775,0.56,48.069,0,44.093,0c-5.671,0-10.56,1.09-14.675,3.27c-4.114,2.179-7.274,5.342-9.482,9.482
					c-2.206,4.141-3.308,9.149-3.31,15.031c-7.306,4.08-19.362,5.242-16.067,8.79C2.22,38.362,9.649,37.04,17.291,35.059
					L17.291,35.059z M56.193,9.462c4.519-2.259,6.919,4.942,6.919,4.942l-6.919,2.683C56.193,17.087,53.461,10.829,56.193,9.462z"/>
			</g>
			<path d="M65.646,30.315c-3.754-2.087-8.485-0.733-10.57,3.02c-2.069,3.723-5.992,6.033-10.243,6.033
				c-5.117,0-9.466-3.307-11.052-7.89c-5.033,1.66-10.648,3.271-14.916,4.442c3.506,11.002,13.819,18.994,25.968,18.994
				c9.893,0,19.025-5.378,23.832-14.03C70.751,37.131,69.398,32.399,65.646,30.315z"/>
		</g>
	</g>
</g>
</svg>
