<?xml version="1.0" encoding="utf-8"?>
<!-- Generator: Adobe Illustrator 16.0.0, SVG Export Plug-In . SVG Version: 6.00 Build 0)  -->
<!DOCTYPE svg PUBLIC "-//W3C//DTD SVG 1.1//EN" "http://www.w3.org/Graphics/SVG/1.1/DTD/svg11.dtd">
<svg version="1.1" xmlns="http://www.w3.org/2000/svg" xmlns:xlink="http://www.w3.org/1999/xlink" x="0px" y="0px"
	 width="69.645px" height="54.915px" viewBox="0 0 69.645 54.915" enable-background="new 0 0 69.645 54.915" xml:space="preserve">
<g id="Calque_1">
</g>
<g id="Calque_2">
	<g>
		<g>
			<g>
				<path d="M17.291,35.059c7.947-2.062,16.118-4.836,18.274-5.58c0.355-0.123,0.552-0.191,0.552-0.191s-0.021-0.008-0.033-0.013
					l1.615-0.636l0.022,0.009l30.894-12.3c-0.765-3.868-2.33-7.001-4.701-9.4c-2.37-2.396-5.272-4.155-8.706-5.272
					C51.775,0.56,48.069,0,44.093,0c-5.671,0-10.56,1.09-14.675,3.27c-4.114,2.179-7.274,5.342-9.482,9.482
					c-2.206,4.141-3.308,9.149-3.31,15.031c-7.306,4.08-19.362,5.242-16.067,8.79C2.22,38.362,9.649,37.04,17.291,35.059
					L17.291,35.059z M56.193,9.462c4.519-2.259,6.919,4.942,6.919,4.942l-6.919,2.683C56.193,17.087,53.461,10.829,56.193,9.462z"/>
			</g>
			<path d="M65.646,30.315c-3.754-2.087-8.485-0.733-10.57,3.02c-2.069,3.723-5.992,6.033-10.243,6.033
				c-5.117,0-9.466-3.307-11.052-7.89c-5.033,1.66-10.648,3.271-14.916,4.442c3.506,11.002,13.819,18.994,25.968,18.994
				c9.893,0,19.025-5.378,23.832-14.03C70.751,37.131,69.398,32.399,65.646,30.315z"/>
		</g>
	</g>
</g>
</svg>
